<mxfile host="app.diagrams.net" agent="Mozilla/5.0 (Windows NT 10.0; Win64; x64) AppleWebKit/537.36 (KHTML, like Gecko) Chrome/131.0.0.0 Safari/537.36 OPR/116.0.0.0" version="26.0.10" pages="3">
  <diagram name="Context" id="oqtOS2J9z5IbcUXTdXof">
    <mxGraphModel dx="819" dy="421" grid="1" gridSize="10" guides="1" tooltips="1" connect="1" arrows="1" fold="1" page="1" pageScale="1" pageWidth="850" pageHeight="1100" math="0" shadow="0">
      <root>
        <mxCell id="0" />
        <mxCell id="1" parent="0" />
        <mxCell id="zhYzGb1JGJrapM0_wbtT-12" style="edgeStyle=orthogonalEdgeStyle;shape=connector;curved=0;rounded=1;orthogonalLoop=1;jettySize=auto;html=1;entryX=0;entryY=0.5;entryDx=0;entryDy=0;strokeColor=default;strokeWidth=2;align=center;verticalAlign=middle;fontFamily=Helvetica;fontSize=11;fontColor=default;labelBackgroundColor=default;endArrow=blockThin;endFill=1;" parent="1" source="zhYzGb1JGJrapM0_wbtT-1" target="zhYzGb1JGJrapM0_wbtT-2" edge="1">
          <mxGeometry relative="1" as="geometry" />
        </mxCell>
        <mxCell id="zhYzGb1JGJrapM0_wbtT-13" value="Receives info about&lt;div&gt;storage, conditions, manage staff&lt;/div&gt;" style="edgeLabel;html=1;align=center;verticalAlign=middle;resizable=0;points=[];fontFamily=Helvetica;fontSize=11;fontColor=default;labelBackgroundColor=default;" parent="zhYzGb1JGJrapM0_wbtT-12" vertex="1" connectable="0">
          <mxGeometry x="-0.0548" y="-1" relative="1" as="geometry">
            <mxPoint y="5" as="offset" />
          </mxGeometry>
        </mxCell>
        <mxCell id="zhYzGb1JGJrapM0_wbtT-1" value="" style="shape=umlActor;verticalLabelPosition=bottom;verticalAlign=top;html=1;outlineConnect=0;strokeWidth=2;" parent="1" vertex="1">
          <mxGeometry x="290" y="40" width="30" height="60" as="geometry" />
        </mxCell>
        <mxCell id="zhYzGb1JGJrapM0_wbtT-2" value="&lt;b&gt;IoT SIMS&lt;/b&gt;&lt;div&gt;[Software system]&lt;/div&gt;&lt;div&gt;&lt;font style=&quot;font-size: 8px;&quot;&gt;Collects and prepares sensors data&lt;/font&gt;&lt;/div&gt;" style="rounded=1;whiteSpace=wrap;html=1;fillColor=#dae8fc;strokeColor=#6c8ebf;strokeWidth=2;" parent="1" vertex="1">
          <mxGeometry x="365" y="190" width="120" height="80" as="geometry" />
        </mxCell>
        <mxCell id="zhYzGb1JGJrapM0_wbtT-4" value="&lt;span style=&quot;font-size: 14px;&quot;&gt;Administrator&lt;/span&gt;" style="text;html=1;align=center;verticalAlign=middle;resizable=0;points=[];autosize=1;strokeColor=none;fillColor=none;" parent="1" vertex="1">
          <mxGeometry x="260" y="10" width="110" height="30" as="geometry" />
        </mxCell>
        <mxCell id="zhYzGb1JGJrapM0_wbtT-15" style="edgeStyle=orthogonalEdgeStyle;shape=connector;curved=0;rounded=1;orthogonalLoop=1;jettySize=auto;html=1;entryX=1;entryY=0.5;entryDx=0;entryDy=0;strokeColor=default;strokeWidth=2;align=center;verticalAlign=middle;fontFamily=Helvetica;fontSize=11;fontColor=default;labelBackgroundColor=default;endArrow=blockThin;endFill=1;" parent="1" source="zhYzGb1JGJrapM0_wbtT-8" target="zhYzGb1JGJrapM0_wbtT-2" edge="1">
          <mxGeometry relative="1" as="geometry" />
        </mxCell>
        <mxCell id="zhYzGb1JGJrapM0_wbtT-16" value="Text" style="edgeLabel;html=1;align=center;verticalAlign=middle;resizable=0;points=[];fontFamily=Helvetica;fontSize=11;fontColor=default;labelBackgroundColor=default;" parent="zhYzGb1JGJrapM0_wbtT-15" vertex="1" connectable="0">
          <mxGeometry x="-0.0826" relative="1" as="geometry">
            <mxPoint y="8" as="offset" />
          </mxGeometry>
        </mxCell>
        <mxCell id="zhYzGb1JGJrapM0_wbtT-17" value="Receives info about&lt;div&gt;storage&lt;/div&gt;" style="edgeLabel;html=1;align=center;verticalAlign=middle;resizable=0;points=[];fontFamily=Helvetica;fontSize=11;fontColor=default;labelBackgroundColor=default;" parent="zhYzGb1JGJrapM0_wbtT-15" vertex="1" connectable="0">
          <mxGeometry x="0.0066" y="4" relative="1" as="geometry">
            <mxPoint as="offset" />
          </mxGeometry>
        </mxCell>
        <mxCell id="zhYzGb1JGJrapM0_wbtT-8" value="" style="shape=umlActor;verticalLabelPosition=bottom;verticalAlign=top;html=1;outlineConnect=0;strokeWidth=2;" parent="1" vertex="1">
          <mxGeometry x="530" y="40" width="30" height="60" as="geometry" />
        </mxCell>
        <mxCell id="zhYzGb1JGJrapM0_wbtT-9" value="&lt;span style=&quot;font-size: 14px;&quot;&gt;Staff&lt;/span&gt;" style="text;html=1;align=center;verticalAlign=middle;resizable=0;points=[];autosize=1;strokeColor=none;fillColor=none;" parent="1" vertex="1">
          <mxGeometry x="520" y="10" width="50" height="30" as="geometry" />
        </mxCell>
      </root>
    </mxGraphModel>
  </diagram>
  <diagram id="KO9y_7JKoBGNRMdRf9yV" name="Container">
    <mxGraphModel dx="1714" dy="573" grid="1" gridSize="10" guides="1" tooltips="1" connect="1" arrows="1" fold="1" page="1" pageScale="1" pageWidth="850" pageHeight="1100" math="0" shadow="0">
      <root>
        <mxCell id="0" />
        <mxCell id="1" parent="0" />
        <mxCell id="YW8g44jHa2PLhlbzLQF1-1" value="" style="rounded=1;whiteSpace=wrap;html=1;fontFamily=Helvetica;fontSize=11;fontColor=default;labelBackgroundColor=default;arcSize=2;dashed=1;dashPattern=12 12;strokeWidth=2;fillColor=none;" parent="1" vertex="1">
          <mxGeometry x="-210" y="320" width="1100" height="490" as="geometry" />
        </mxCell>
        <mxCell id="5ffuFEg7UBpjydC8EcDW-3" value="" style="shape=umlActor;verticalLabelPosition=bottom;verticalAlign=top;html=1;outlineConnect=0;strokeWidth=2;" parent="1" vertex="1">
          <mxGeometry x="610" y="170" width="30" height="60" as="geometry" />
        </mxCell>
        <mxCell id="5ffuFEg7UBpjydC8EcDW-5" style="edgeStyle=orthogonalEdgeStyle;shape=connector;curved=1;rounded=0;orthogonalLoop=1;jettySize=auto;html=1;strokeColor=default;strokeWidth=2;align=center;verticalAlign=middle;fontFamily=Helvetica;fontSize=11;fontColor=default;labelBackgroundColor=default;endArrow=blockThin;endFill=1;entryX=0.75;entryY=0;entryDx=0;entryDy=0;" parent="1" source="5ffuFEg7UBpjydC8EcDW-8" target="PmM5C1gu6L-HJw2TaHYf-10" edge="1">
          <mxGeometry relative="1" as="geometry">
            <mxPoint x="790" y="380" as="targetPoint" />
            <Array as="points">
              <mxPoint x="845" y="310" />
              <mxPoint x="795" y="310" />
            </Array>
          </mxGeometry>
        </mxCell>
        <mxCell id="5ffuFEg7UBpjydC8EcDW-7" value="Receives info about&lt;div&gt;storage&lt;/div&gt;" style="edgeLabel;html=1;align=center;verticalAlign=middle;resizable=0;points=[];fontFamily=Helvetica;fontSize=11;fontColor=default;labelBackgroundColor=default;" parent="5ffuFEg7UBpjydC8EcDW-5" vertex="1" connectable="0">
          <mxGeometry x="0.0066" y="4" relative="1" as="geometry">
            <mxPoint x="6" y="-34" as="offset" />
          </mxGeometry>
        </mxCell>
        <mxCell id="5ffuFEg7UBpjydC8EcDW-8" value="" style="shape=umlActor;verticalLabelPosition=bottom;verticalAlign=top;html=1;outlineConnect=0;strokeWidth=2;" parent="1" vertex="1">
          <mxGeometry x="830" y="170" width="30" height="60" as="geometry" />
        </mxCell>
        <mxCell id="-S_SBssq4ThmVW1qhfvY-12" style="edgeStyle=orthogonalEdgeStyle;shape=connector;curved=0;rounded=1;orthogonalLoop=1;jettySize=auto;html=1;strokeColor=default;strokeWidth=2;align=center;verticalAlign=middle;fontFamily=Helvetica;fontSize=11;fontColor=default;labelBackgroundColor=default;endArrow=blockThin;endFill=1;exitX=1;exitY=0.5;exitDx=0;exitDy=0;exitPerimeter=0;entryX=0;entryY=0.5;entryDx=0;entryDy=0;entryPerimeter=0;" parent="1" source="-S_SBssq4ThmVW1qhfvY-11" target="-S_SBssq4ThmVW1qhfvY-20" edge="1">
          <mxGeometry relative="1" as="geometry">
            <mxPoint x="530" y="700" as="sourcePoint" />
            <mxPoint x="550" y="620" as="targetPoint" />
          </mxGeometry>
        </mxCell>
        <mxCell id="-S_SBssq4ThmVW1qhfvY-16" value="Consumes sensors data&lt;div&gt;[MQTT]&lt;/div&gt;" style="edgeLabel;html=1;align=center;verticalAlign=middle;resizable=0;points=[];fontFamily=Helvetica;fontSize=11;fontColor=default;labelBackgroundColor=default;" parent="-S_SBssq4ThmVW1qhfvY-12" vertex="1" connectable="0">
          <mxGeometry x="0.2928" y="3" relative="1" as="geometry">
            <mxPoint x="-27" y="5" as="offset" />
          </mxGeometry>
        </mxCell>
        <mxCell id="JSog__Bf_tU70O1jz808-1" value="&lt;span style=&quot;font-size: 14px;&quot;&gt;Administrator&lt;/span&gt;" style="text;html=1;align=center;verticalAlign=middle;resizable=0;points=[];autosize=1;strokeColor=none;fillColor=none;" parent="1" vertex="1">
          <mxGeometry x="570" y="140" width="110" height="30" as="geometry" />
        </mxCell>
        <mxCell id="JSog__Bf_tU70O1jz808-2" value="&lt;span style=&quot;font-size: 14px;&quot;&gt;Staff&lt;/span&gt;" style="text;html=1;align=center;verticalAlign=middle;resizable=0;points=[];autosize=1;strokeColor=none;fillColor=none;" parent="1" vertex="1">
          <mxGeometry x="820" y="140" width="50" height="30" as="geometry" />
        </mxCell>
        <mxCell id="-S_SBssq4ThmVW1qhfvY-4" value="&lt;div&gt;&lt;b&gt;Temperature sensor&lt;/b&gt;&lt;/div&gt;&lt;div&gt;[Software system]&lt;/div&gt;&lt;div&gt;&lt;font style=&quot;font-size: 8px;&quot;&gt;Sends temperature sensor data&lt;/font&gt;&lt;/div&gt;" style="rounded=1;whiteSpace=wrap;html=1;fillColor=#dae8fc;strokeColor=#6c8ebf;strokeWidth=2;" parent="1" vertex="1">
          <mxGeometry x="-130" y="481.72" width="130" height="80" as="geometry" />
        </mxCell>
        <mxCell id="-S_SBssq4ThmVW1qhfvY-5" value="&lt;div&gt;&lt;b&gt;Humidity sensor&lt;/b&gt;&lt;/div&gt;&lt;div&gt;[Software system]&lt;/div&gt;&lt;div&gt;&lt;font style=&quot;font-size: 8px;&quot;&gt;Sends humidity sensor data&lt;/font&gt;&lt;/div&gt;" style="rounded=1;whiteSpace=wrap;html=1;fillColor=#dae8fc;strokeColor=#6c8ebf;strokeWidth=2;" parent="1" vertex="1">
          <mxGeometry x="-130" y="581.72" width="130" height="80" as="geometry" />
        </mxCell>
        <mxCell id="-S_SBssq4ThmVW1qhfvY-6" value="&lt;div&gt;&lt;b&gt;Shelf sensor&lt;/b&gt;&lt;/div&gt;&lt;div&gt;[Software system]&lt;/div&gt;&lt;div&gt;&lt;font style=&quot;font-size: 8px;&quot;&gt;Sends weight sensor data&lt;/font&gt;&lt;/div&gt;" style="rounded=1;whiteSpace=wrap;html=1;fillColor=#dae8fc;strokeColor=#6c8ebf;strokeWidth=2;" parent="1" vertex="1">
          <mxGeometry x="-130" y="681.72" width="130" height="80" as="geometry" />
        </mxCell>
        <mxCell id="-S_SBssq4ThmVW1qhfvY-13" style="edgeStyle=orthogonalEdgeStyle;shape=connector;curved=0;rounded=1;orthogonalLoop=1;jettySize=auto;html=1;entryX=0;entryY=0.5;entryDx=0;entryDy=0;strokeColor=default;strokeWidth=2;align=center;verticalAlign=middle;fontFamily=Helvetica;fontSize=11;fontColor=default;labelBackgroundColor=default;endArrow=blockThin;endFill=1;exitX=1;exitY=0.5;exitDx=0;exitDy=0;entryPerimeter=0;" parent="1" source="-S_SBssq4ThmVW1qhfvY-4" target="-S_SBssq4ThmVW1qhfvY-11" edge="1">
          <mxGeometry relative="1" as="geometry">
            <Array as="points">
              <mxPoint y="520" />
              <mxPoint x="150" y="520" />
              <mxPoint x="150" y="620" />
            </Array>
            <mxPoint x="250" y="589.14" as="sourcePoint" />
            <mxPoint x="60" y="490.86" as="targetPoint" />
          </mxGeometry>
        </mxCell>
        <mxCell id="-S_SBssq4ThmVW1qhfvY-19" value="Send temperature data,&lt;div&gt;regulate environment&lt;/div&gt;&lt;div&gt;[MQTT]&lt;/div&gt;" style="edgeLabel;html=1;align=center;verticalAlign=middle;resizable=0;points=[];fontFamily=Helvetica;fontSize=11;fontColor=default;labelBackgroundColor=default;" parent="-S_SBssq4ThmVW1qhfvY-13" vertex="1" connectable="0">
          <mxGeometry x="0.5894" y="1" relative="1" as="geometry">
            <mxPoint x="-81" y="-78" as="offset" />
          </mxGeometry>
        </mxCell>
        <mxCell id="-S_SBssq4ThmVW1qhfvY-14" style="edgeStyle=orthogonalEdgeStyle;shape=connector;curved=0;rounded=1;orthogonalLoop=1;jettySize=auto;html=1;strokeColor=default;strokeWidth=2;align=center;verticalAlign=middle;fontFamily=Helvetica;fontSize=11;fontColor=default;labelBackgroundColor=default;endArrow=blockThin;endFill=1;exitX=1;exitY=0.5;exitDx=0;exitDy=0;entryX=0;entryY=0.5;entryDx=0;entryDy=0;entryPerimeter=0;" parent="1" source="-S_SBssq4ThmVW1qhfvY-5" target="-S_SBssq4ThmVW1qhfvY-11" edge="1">
          <mxGeometry relative="1" as="geometry">
            <mxPoint x="290" y="760" as="sourcePoint" />
            <mxPoint x="170" y="620" as="targetPoint" />
            <Array as="points">
              <mxPoint y="620" />
            </Array>
          </mxGeometry>
        </mxCell>
        <mxCell id="-S_SBssq4ThmVW1qhfvY-18" value="Send humidity data,&lt;div&gt;regulate environment&lt;/div&gt;&lt;div&gt;[MQTT]&lt;/div&gt;" style="edgeLabel;html=1;align=center;verticalAlign=middle;resizable=0;points=[];fontFamily=Helvetica;fontSize=11;fontColor=default;labelBackgroundColor=default;" parent="-S_SBssq4ThmVW1qhfvY-14" vertex="1" connectable="0">
          <mxGeometry x="0.46" y="-1" relative="1" as="geometry">
            <mxPoint x="-68" y="-1" as="offset" />
          </mxGeometry>
        </mxCell>
        <mxCell id="-S_SBssq4ThmVW1qhfvY-15" style="edgeStyle=orthogonalEdgeStyle;shape=connector;curved=0;rounded=1;orthogonalLoop=1;jettySize=auto;html=1;strokeColor=default;strokeWidth=2;align=center;verticalAlign=middle;fontFamily=Helvetica;fontSize=11;fontColor=default;labelBackgroundColor=default;endArrow=blockThin;endFill=1;exitX=1;exitY=0.5;exitDx=0;exitDy=0;entryX=0;entryY=0.5;entryDx=0;entryDy=0;entryPerimeter=0;" parent="1" source="-S_SBssq4ThmVW1qhfvY-6" target="-S_SBssq4ThmVW1qhfvY-11" edge="1">
          <mxGeometry relative="1" as="geometry">
            <mxPoint x="170" y="602.72" as="sourcePoint" />
            <mxPoint x="-120" y="707.72" as="targetPoint" />
            <Array as="points">
              <mxPoint x="150" y="722" />
              <mxPoint x="150" y="620" />
            </Array>
          </mxGeometry>
        </mxCell>
        <mxCell id="-S_SBssq4ThmVW1qhfvY-17" value="Send weight&amp;nbsp;data&lt;div&gt;[MQTT]&lt;/div&gt;" style="edgeLabel;html=1;align=center;verticalAlign=middle;resizable=0;points=[];fontFamily=Helvetica;fontSize=11;fontColor=default;labelBackgroundColor=default;" parent="-S_SBssq4ThmVW1qhfvY-15" vertex="1" connectable="0">
          <mxGeometry x="0.0158" y="2" relative="1" as="geometry">
            <mxPoint x="-68" y="2" as="offset" />
          </mxGeometry>
        </mxCell>
        <mxCell id="-S_SBssq4ThmVW1qhfvY-11" value="&lt;b&gt;Brocker&lt;/b&gt;&lt;div&gt;[Subsystem: IoT Hub]&lt;/div&gt;&lt;div&gt;&lt;font style=&quot;font-size: 8px;&quot;&gt;Queue for sensors data&lt;/font&gt;&lt;/div&gt;" style="strokeWidth=2;html=1;shape=mxgraph.flowchart.direct_data;whiteSpace=wrap;fontFamily=Helvetica;fontSize=11;labelBackgroundColor=#DAE8FC;fillColor=#DAE8FC;strokeColor=#6c8ebf;" parent="1" vertex="1">
          <mxGeometry x="190" y="575" width="210" height="90" as="geometry" />
        </mxCell>
        <mxCell id="Vg-uSANRTQ1uXMuGwU0A-1" value="&lt;b style=&quot;forced-color-adjust: none; color: rgb(0, 0, 0); font-family: Helvetica; font-size: 12px; font-style: normal; font-variant-ligatures: normal; font-variant-caps: normal; letter-spacing: normal; orphans: 2; text-align: center; text-indent: 0px; text-transform: none; widows: 2; word-spacing: 0px; -webkit-text-stroke-width: 0px; white-space: normal; background-color: rgb(251, 251, 251); text-decoration-thickness: initial; text-decoration-style: initial; text-decoration-color: initial;&quot;&gt;IoT SIMS&lt;/b&gt;&lt;br class=&quot;Apple-interchange-newline&quot;&gt;&lt;div&gt;&lt;span style=&quot;forced-color-adjust: none; color: rgb(0, 0, 0); font-family: Helvetica; font-size: 12px; font-style: normal; font-variant-ligatures: normal; font-variant-caps: normal; letter-spacing: normal; orphans: 2; text-align: center; text-indent: 0px; text-transform: none; widows: 2; word-spacing: 0px; -webkit-text-stroke-width: 0px; white-space: normal; background-color: rgb(251, 251, 251); text-decoration-thickness: initial; text-decoration-style: initial; text-decoration-color: initial;&quot;&gt;[Conteiners Diagram]&lt;/span&gt;&lt;/div&gt;" style="text;whiteSpace=wrap;html=1;fontFamily=Helvetica;fontSize=11;fontColor=default;labelBackgroundColor=default;" parent="1" vertex="1">
          <mxGeometry x="-180" y="760" width="120" height="40" as="geometry" />
        </mxCell>
        <mxCell id="PmM5C1gu6L-HJw2TaHYf-2" value="" style="group" vertex="1" connectable="0" parent="1">
          <mxGeometry x="640" y="570" width="170" height="100" as="geometry" />
        </mxCell>
        <mxCell id="-S_SBssq4ThmVW1qhfvY-20" value="" style="strokeWidth=2;html=1;shape=mxgraph.flowchart.database;whiteSpace=wrap;fontFamily=Helvetica;fontSize=11;labelBackgroundColor=#DAE8FC;fillColor=#DAE8FC;strokeColor=#6c8ebf;" parent="PmM5C1gu6L-HJw2TaHYf-2" vertex="1">
          <mxGeometry width="170" height="100" as="geometry" />
        </mxCell>
        <mxCell id="-S_SBssq4ThmVW1qhfvY-22" value="&lt;b&gt;Database&lt;/b&gt;&lt;div&gt;[Subsystem: Cosmos DB PostgreSQL]&lt;/div&gt;&lt;div&gt;&lt;font style=&quot;font-size: 8px;&quot;&gt;Stores data about staff&lt;/font&gt;&lt;/div&gt;" style="text;html=1;align=center;verticalAlign=middle;whiteSpace=wrap;rounded=0;fontFamily=Helvetica;fontSize=11;fontColor=default;labelBackgroundColor=#DAE8FC;" parent="PmM5C1gu6L-HJw2TaHYf-2" vertex="1">
          <mxGeometry x="8.75" y="40" width="152.5" height="50" as="geometry" />
        </mxCell>
        <mxCell id="PmM5C1gu6L-HJw2TaHYf-11" value="" style="edgeStyle=orthogonalEdgeStyle;shape=connector;curved=1;rounded=0;orthogonalLoop=1;jettySize=auto;html=1;entryX=0.25;entryY=0;entryDx=0;entryDy=0;strokeColor=default;strokeWidth=2;align=center;verticalAlign=middle;fontFamily=Helvetica;fontSize=11;fontColor=default;labelBackgroundColor=default;endArrow=blockThin;endFill=1;" edge="1" parent="1" source="5ffuFEg7UBpjydC8EcDW-3" target="PmM5C1gu6L-HJw2TaHYf-10">
          <mxGeometry relative="1" as="geometry">
            <mxPoint x="660" y="380" as="targetPoint" />
            <mxPoint x="585" y="100" as="sourcePoint" />
          </mxGeometry>
        </mxCell>
        <mxCell id="PmM5C1gu6L-HJw2TaHYf-12" value="Receives info about&lt;div&gt;storage, conditions, manage staff&lt;/div&gt;" style="edgeLabel;html=1;align=center;verticalAlign=middle;resizable=0;points=[];fontFamily=Helvetica;fontSize=11;fontColor=default;labelBackgroundColor=default;" vertex="1" connectable="0" parent="PmM5C1gu6L-HJw2TaHYf-11">
          <mxGeometry x="-0.0548" y="-1" relative="1" as="geometry">
            <mxPoint x="-15" y="-26" as="offset" />
          </mxGeometry>
        </mxCell>
        <mxCell id="PmM5C1gu6L-HJw2TaHYf-10" value="&lt;b&gt;WEB-application&lt;/b&gt;&lt;br&gt;&lt;div style=&quot;text-align: start;&quot;&gt;&amp;nbsp; &amp;nbsp; &amp;nbsp;[Subsystem: Grafana]&lt;/div&gt;&lt;div&gt;&lt;font style=&quot;font-size: 8px;&quot;&gt;Processes and prepares data from sensors&lt;/font&gt;&lt;/div&gt;" style="rounded=1;whiteSpace=wrap;html=1;fillColor=#dae8fc;strokeColor=#6c8ebf;strokeWidth=2;" vertex="1" parent="1">
          <mxGeometry x="600" y="380" width="260" height="80" as="geometry" />
        </mxCell>
        <mxCell id="PmM5C1gu6L-HJw2TaHYf-13" style="edgeStyle=orthogonalEdgeStyle;shape=connector;curved=1;rounded=0;orthogonalLoop=1;jettySize=auto;html=1;entryX=0.523;entryY=-0.004;entryDx=0;entryDy=0;strokeColor=default;strokeWidth=2;align=center;verticalAlign=middle;fontFamily=Helvetica;fontSize=11;fontColor=default;labelBackgroundColor=default;endArrow=blockThin;endFill=1;exitX=0.5;exitY=1;exitDx=0;exitDy=0;entryPerimeter=0;" edge="1" parent="1" target="-S_SBssq4ThmVW1qhfvY-20">
          <mxGeometry relative="1" as="geometry">
            <mxPoint x="729.6500000000001" y="540" as="targetPoint" />
            <mxPoint x="729.79" y="460" as="sourcePoint" />
            <Array as="points">
              <mxPoint x="730" y="520" />
              <mxPoint x="729" y="520" />
            </Array>
          </mxGeometry>
        </mxCell>
        <mxCell id="PmM5C1gu6L-HJw2TaHYf-1" value="Manipulate staff permissions" style="edgeLabel;html=1;align=center;verticalAlign=middle;resizable=0;points=[];fontFamily=Helvetica;fontSize=11;fontColor=default;labelBackgroundColor=default;" vertex="1" connectable="0" parent="1">
          <mxGeometry x="530" y="350.00476190476184" as="geometry">
            <mxPoint x="196" y="137" as="offset" />
          </mxGeometry>
        </mxCell>
        <mxCell id="H6zsMVdzipPwe2C_58IS-1" value="&lt;div&gt;Receives sensor data&lt;/div&gt;&lt;div&gt;[Azure API]&lt;br&gt;&lt;/div&gt;" style="edgeLabel;html=1;align=center;verticalAlign=middle;resizable=0;points=[];fontFamily=Helvetica;fontSize=11;fontColor=default;labelBackgroundColor=default;" parent="1" vertex="1" connectable="0">
          <mxGeometry x="900" y="539.9975743244862" as="geometry">
            <mxPoint x="-173" y="-4" as="offset" />
          </mxGeometry>
        </mxCell>
        <mxCell id="UuKKcXgHU-5TBeJCaYW2-1" value="&lt;div style=&quot;&quot;&gt;&lt;b&gt;Backend&lt;br&gt;&lt;/b&gt;&amp;nbsp; &amp;nbsp; &amp;nbsp;[Subsystem: Rust]&lt;/div&gt;&lt;div&gt;&lt;font style=&quot;font-size: 8px;&quot;&gt;Processes and prepares data from sensors&lt;/font&gt;&lt;/div&gt;" style="rounded=1;whiteSpace=wrap;html=1;fillColor=#dae8fc;strokeColor=#6c8ebf;strokeWidth=2;" vertex="1" parent="1">
          <mxGeometry x="930" y="380" width="260" height="80" as="geometry" />
        </mxCell>
        <mxCell id="hkcZtfYw_sbgw_Dl8id7-1" style="edgeStyle=orthogonalEdgeStyle;shape=connector;curved=0;rounded=1;orthogonalLoop=1;jettySize=auto;html=1;entryX=1;entryY=0.5;entryDx=0;entryDy=0;entryPerimeter=0;strokeColor=default;strokeWidth=2;align=center;verticalAlign=middle;fontFamily=Helvetica;fontSize=11;fontColor=default;labelBackgroundColor=default;endArrow=blockThin;endFill=1;exitX=0.5;exitY=1;exitDx=0;exitDy=0;" edge="1" parent="1" source="UuKKcXgHU-5TBeJCaYW2-1" target="-S_SBssq4ThmVW1qhfvY-20">
          <mxGeometry relative="1" as="geometry">
            <mxPoint x="990" y="761.72" as="targetPoint" />
            <mxPoint x="1110" y="581.72" as="sourcePoint" />
          </mxGeometry>
        </mxCell>
        <mxCell id="hkcZtfYw_sbgw_Dl8id7-4" value="Receives sensor data" style="edgeLabel;html=1;align=center;verticalAlign=middle;resizable=0;points=[];fontFamily=Helvetica;fontSize=11;fontColor=default;labelBackgroundColor=default;" vertex="1" connectable="0" parent="1">
          <mxGeometry x="860" y="370.00476190476184" as="geometry">
            <mxPoint x="196" y="137" as="offset" />
          </mxGeometry>
        </mxCell>
        <mxCell id="hkcZtfYw_sbgw_Dl8id7-5" value="Manipulate staff permissions" style="edgeLabel;html=1;align=center;verticalAlign=middle;resizable=0;points=[];fontFamily=Helvetica;fontSize=11;fontColor=default;labelBackgroundColor=default;" vertex="1" connectable="0" parent="1">
          <mxGeometry x="860" y="410.00476190476184" as="geometry">
            <mxPoint x="196" y="137" as="offset" />
          </mxGeometry>
        </mxCell>
      </root>
    </mxGraphModel>
  </diagram>
  <diagram id="BZsTyfw_Q46ElCKVaj7m" name="Component">
    <mxGraphModel dx="973" dy="644" grid="1" gridSize="10" guides="1" tooltips="1" connect="1" arrows="1" fold="1" page="1" pageScale="1" pageWidth="850" pageHeight="1100" math="0" shadow="0">
      <root>
        <mxCell id="0" />
        <mxCell id="1" parent="0" />
        <mxCell id="9T07fGctJdroHQ9fLiNR-1" value="" style="rounded=1;whiteSpace=wrap;html=1;fontFamily=Helvetica;fontSize=11;fontColor=default;labelBackgroundColor=default;arcSize=2;dashed=1;dashPattern=12 12;strokeWidth=2;fillColor=none;" parent="1" vertex="1">
          <mxGeometry x="188" y="300" width="475" height="430" as="geometry" />
        </mxCell>
        <mxCell id="9T07fGctJdroHQ9fLiNR-31" style="edgeStyle=orthogonalEdgeStyle;shape=connector;curved=0;rounded=1;orthogonalLoop=1;jettySize=auto;html=1;strokeColor=default;strokeWidth=2;align=center;verticalAlign=middle;fontFamily=Helvetica;fontSize=11;fontColor=default;labelBackgroundColor=default;endArrow=blockThin;endFill=1;" parent="1" source="9T07fGctJdroHQ9fLiNR-13" target="9T07fGctJdroHQ9fLiNR-29" edge="1">
          <mxGeometry relative="1" as="geometry" />
        </mxCell>
        <mxCell id="9T07fGctJdroHQ9fLiNR-32" style="edgeStyle=orthogonalEdgeStyle;shape=connector;curved=0;rounded=1;orthogonalLoop=1;jettySize=auto;html=1;entryX=0.5;entryY=0;entryDx=0;entryDy=0;strokeColor=default;strokeWidth=2;align=center;verticalAlign=middle;fontFamily=Helvetica;fontSize=11;fontColor=default;labelBackgroundColor=default;endArrow=blockThin;endFill=1;" parent="1" source="9T07fGctJdroHQ9fLiNR-13" target="9T07fGctJdroHQ9fLiNR-30" edge="1">
          <mxGeometry relative="1" as="geometry" />
        </mxCell>
        <mxCell id="9T07fGctJdroHQ9fLiNR-13" value="&lt;b&gt;WEB-application&lt;/b&gt;&lt;br&gt;&lt;div style=&quot;text-align: start;&quot;&gt;&amp;nbsp; &amp;nbsp; &amp;nbsp;[Subsystem: Grafana]&lt;/div&gt;&lt;div&gt;&lt;font style=&quot;font-size: 8px;&quot;&gt;Processes and prepares data from sensors&lt;/font&gt;&lt;/div&gt;" style="rounded=1;whiteSpace=wrap;html=1;fillColor=#dae8fc;strokeColor=#6c8ebf;strokeWidth=2;" parent="1" vertex="1">
          <mxGeometry x="295" y="350" width="260" height="80" as="geometry" />
        </mxCell>
        <mxCell id="s7J1k2uyJv4eTcihVzPK-6" style="edgeStyle=orthogonalEdgeStyle;shape=connector;curved=0;rounded=1;orthogonalLoop=1;jettySize=auto;html=1;strokeColor=default;strokeWidth=2;align=center;verticalAlign=middle;fontFamily=Helvetica;fontSize=11;fontColor=default;labelBackgroundColor=default;endArrow=blockThin;endFill=1;exitX=0.5;exitY=1;exitDx=0;exitDy=0;entryX=0.5;entryY=0;entryDx=0;entryDy=0;entryPerimeter=0;" parent="1" source="9T07fGctJdroHQ9fLiNR-29" edge="1" target="E5KIp8Zqy27eR4W3FU4U-1">
          <mxGeometry relative="1" as="geometry">
            <mxPoint x="229.99999999999977" y="630.0044827586207" as="targetPoint" />
            <mxPoint x="390" y="634.97" as="sourcePoint" />
          </mxGeometry>
        </mxCell>
        <mxCell id="s7J1k2uyJv4eTcihVzPK-9" value="Consumes sensors data&lt;div&gt;[MQTT]&lt;/div&gt;" style="edgeLabel;html=1;align=center;verticalAlign=middle;resizable=0;points=[];fontFamily=Helvetica;fontSize=11;fontColor=default;labelBackgroundColor=default;" parent="s7J1k2uyJv4eTcihVzPK-6" vertex="1" connectable="0">
          <mxGeometry x="0.1078" y="-1" relative="1" as="geometry">
            <mxPoint x="-85" y="-41" as="offset" />
          </mxGeometry>
        </mxCell>
        <mxCell id="9T07fGctJdroHQ9fLiNR-29" value="&lt;div&gt;&lt;b&gt;SensorsRepository&lt;/b&gt;&lt;/div&gt;&lt;div&gt;[Component: Struct]&lt;/div&gt;&lt;div&gt;&lt;font style=&quot;font-size: 8px;&quot;&gt;Receives data from DB&lt;br&gt;&lt;/font&gt;&lt;/div&gt;" style="rounded=1;whiteSpace=wrap;html=1;fillColor=#dae8fc;strokeColor=#6c8ebf;strokeWidth=2;" parent="1" vertex="1">
          <mxGeometry x="210" y="500" width="170" height="80" as="geometry" />
        </mxCell>
        <mxCell id="9T07fGctJdroHQ9fLiNR-30" value="&lt;div&gt;&lt;b&gt;StaffRepository&lt;/b&gt;&lt;/div&gt;&lt;div&gt;[Component: Struct]&lt;/div&gt;&lt;div&gt;&lt;font style=&quot;font-size: 8px;&quot;&gt;Read, writes sensors data&lt;/font&gt;&lt;/div&gt;" style="rounded=1;whiteSpace=wrap;html=1;fillColor=#dae8fc;strokeColor=#6c8ebf;strokeWidth=2;" parent="1" vertex="1">
          <mxGeometry x="460" y="500" width="170" height="80" as="geometry" />
        </mxCell>
        <mxCell id="8a_zJWFvPLbwrRfqVZX_-1" value="&lt;div&gt;&lt;span style=&quot;forced-color-adjust: none; color: rgb(0, 0, 0); font-family: Helvetica; font-size: 12px; font-style: normal; font-variant-ligatures: normal; font-variant-caps: normal; letter-spacing: normal; orphans: 2; text-align: center; text-indent: 0px; text-transform: none; widows: 2; word-spacing: 0px; -webkit-text-stroke-width: 0px; white-space: normal; background-color: rgb(251, 251, 251); text-decoration-thickness: initial; text-decoration-style: initial; text-decoration-color: initial;&quot;&gt;&lt;b&gt;WEB-application&lt;/b&gt;&lt;/span&gt;&lt;/div&gt;&lt;div&gt;&lt;span style=&quot;forced-color-adjust: none; color: rgb(0, 0, 0); font-family: Helvetica; font-size: 12px; font-style: normal; font-variant-ligatures: normal; font-variant-caps: normal; letter-spacing: normal; orphans: 2; text-align: center; text-indent: 0px; text-transform: none; widows: 2; word-spacing: 0px; -webkit-text-stroke-width: 0px; white-space: normal; background-color: rgb(251, 251, 251); text-decoration-thickness: initial; text-decoration-style: initial; text-decoration-color: initial;&quot;&gt;[Component Diagram]&lt;/span&gt;&lt;/div&gt;" style="text;whiteSpace=wrap;html=1;fontFamily=Helvetica;fontSize=11;fontColor=default;labelBackgroundColor=default;" parent="1" vertex="1">
          <mxGeometry x="200" y="680" width="120" height="40" as="geometry" />
        </mxCell>
        <mxCell id="s7J1k2uyJv4eTcihVzPK-7" style="edgeStyle=orthogonalEdgeStyle;shape=connector;curved=0;rounded=1;orthogonalLoop=1;jettySize=auto;html=1;entryX=0.5;entryY=0;entryDx=0;entryDy=0;entryPerimeter=0;strokeColor=default;strokeWidth=2;align=center;verticalAlign=middle;fontFamily=Helvetica;fontSize=11;fontColor=default;labelBackgroundColor=default;endArrow=blockThin;endFill=1;exitX=0.5;exitY=1;exitDx=0;exitDy=0;" parent="1" source="9T07fGctJdroHQ9fLiNR-30" edge="1" target="E5KIp8Zqy27eR4W3FU4U-1">
          <mxGeometry relative="1" as="geometry">
            <mxPoint x="760" y="630" as="targetPoint" />
            <mxPoint x="550" y="630" as="sourcePoint" />
          </mxGeometry>
        </mxCell>
        <mxCell id="s7J1k2uyJv4eTcihVzPK-8" value="Receive historical sensors data" style="edgeLabel;html=1;align=center;verticalAlign=middle;resizable=0;points=[];fontFamily=Helvetica;fontSize=11;fontColor=default;labelBackgroundColor=default;" parent="s7J1k2uyJv4eTcihVzPK-7" vertex="1" connectable="0">
          <mxGeometry x="-0.1944" y="2" relative="1" as="geometry">
            <mxPoint x="36" y="-42" as="offset" />
          </mxGeometry>
        </mxCell>
        <mxCell id="M0LHq0lUL1G6I94Zy-4T-1" value="" style="group" vertex="1" connectable="0" parent="1">
          <mxGeometry x="340" y="760" width="170" height="100" as="geometry" />
        </mxCell>
        <mxCell id="E5KIp8Zqy27eR4W3FU4U-1" value="" style="strokeWidth=2;html=1;shape=mxgraph.flowchart.database;whiteSpace=wrap;fontFamily=Helvetica;fontSize=11;labelBackgroundColor=#DAE8FC;fillColor=#DAE8FC;strokeColor=#6c8ebf;" parent="M0LHq0lUL1G6I94Zy-4T-1" vertex="1">
          <mxGeometry width="170" height="100" as="geometry" />
        </mxCell>
        <mxCell id="E5KIp8Zqy27eR4W3FU4U-2" value="&lt;b&gt;Database&lt;/b&gt;&lt;div&gt;[Subsystem: Cosmos DB PostgreSQL]&lt;/div&gt;&lt;div&gt;&lt;font style=&quot;font-size: 8px;&quot;&gt;Stores data about staff&lt;/font&gt;&lt;/div&gt;" style="text;html=1;align=center;verticalAlign=middle;whiteSpace=wrap;rounded=0;fontFamily=Helvetica;fontSize=11;fontColor=default;labelBackgroundColor=#DAE8FC;" parent="M0LHq0lUL1G6I94Zy-4T-1" vertex="1">
          <mxGeometry x="8.75" y="35" width="152.5" height="50" as="geometry" />
        </mxCell>
      </root>
    </mxGraphModel>
  </diagram>
</mxfile>
